# xmcd CD database file
#
# Track frame offsets:
#	150
#	14831
#	34603
#	47532
#	61416
#	78731
#	91028
#	104523
#	116474
#	129497
#	147240
#	158892
#	167132
#	178173
#	189118
#	198154
#
# Disc length: 2750 seconds
#
# Revision: 0
# Processed by: cddbd v1.5.1PL2 Copyright (c) Steve Scherf et al.
# Submitted via: CDex 1.50Beta7
#
DISCID=d30abc10
DTITLE=Christma Blues - Stormy Santa
DYEAR=1970
DGENRE=Blues
TTITLE0=Little Esther Phillips - Faraway Christmas
TTITLE1=KOko Taylor - Merry Merry Christmas
TTITLE2=Little Ed and The Blues Imperials - I´m Your Santa
TTITLE3=Solomon Burke - Presents For Christmas
TTITLE4=Lightnin´ Hopkins - Christmas Time Blues
TTITLE5=Freddie King - Christmas Tears
TTITLE6=Otis Redding - White Christmas
TTITLE7=The Emotions -  Black Christmas
TTITLE8=Clyde Lashley - Santa Came Home One Night
TTITLE9=James Brown - Santa Claus, Santa Claus
TTITLE10=Chuck Berry - Run Run Rudolph
TTITLE11=Leon Redbone - Frosty The Snowman
TTITLE12=Elvin Bishop - Little Drummer Boy
TTITLE13=Booker T and the MG´s - Jingle Bells
TTITLE14=Ike and Tina Turner - Merry Christmas Baby
TTITLE15=Stevie Wonder - What Christmas Means To Me
EXTD=YEAR: 1970
EXTT0=
EXTT1=
EXTT2=
EXTT3=
EXTT4=
EXTT5=
EXTT6=
EXTT7=
EXTT8=
EXTT9=
EXTT10=
EXTT11=
EXTT12=
EXTT13=
EXTT14=
EXTT15=
PLAYORDER=
